<svg width="174" height="2184" viewBox="0 0 174 2184" fill="none" xmlns="http://www.w3.org/2000/svg">
<g filter="url(#filter0_d)">
<rect x="170" y="206" width="116" height="166" rx="9" transform="rotate(90 170 206)" fill="white"/>
<rect x="170" y="412" width="116" height="166" rx="9" transform="rotate(90 170 412)" fill="white"/>
<rect x="170" width="116" height="166" rx="9" transform="rotate(90 170 0)" fill="white"/>
<rect x="170" y="2060" width="116" height="166" rx="9" transform="rotate(90 170 2060)" fill="white"/>
<rect x="170" y="1236" width="116" height="166" rx="9" transform="rotate(90 170 1236)" fill="white"/>
<rect x="170" y="1648" width="116" height="166" rx="9" transform="rotate(90 170 1648)" fill="white"/>
<rect x="170" y="824" width="116" height="166" rx="9" transform="rotate(90 170 824)" fill="white"/>
<rect x="170" y="1854" width="116" height="166" rx="9" transform="rotate(90 170 1854)" fill="white"/>
<rect x="170" y="1030" width="116" height="166" rx="9" transform="rotate(90 170 1030)" fill="white"/>
<rect x="170" y="1442" width="116" height="166" rx="9" transform="rotate(90 170 1442)" fill="white"/>
<rect x="170" y="618" width="116" height="166" rx="9" transform="rotate(90 170 618)" fill="white"/>
</g>
<defs>
<filter id="filter0_d" x="0" y="0" width="174" height="2184" filterUnits="userSpaceOnUse" color-interpolation-filters="sRGB">
<feFlood flood-opacity="0" result="BackgroundImageFix"/>
<feColorMatrix in="SourceAlpha" type="matrix" values="0 0 0 0 0 0 0 0 0 0 0 0 0 0 0 0 0 0 127 0"/>
<feOffset dy="4"/>
<feGaussianBlur stdDeviation="2"/>
<feColorMatrix type="matrix" values="0 0 0 0 0 0 0 0 0 0 0 0 0 0 0 0 0 0 0.25 0"/>
<feBlend mode="normal" in2="BackgroundImageFix" result="effect1_dropShadow"/>
<feBlend mode="normal" in="SourceGraphic" in2="effect1_dropShadow" result="shape"/>
</filter>
</defs>
</svg>
