<svg width="166" height="2176" viewBox="0 0 166 2176" fill="none" xmlns="http://www.w3.org/2000/svg">
<rect x="166" y="206" width="116" height="166" rx="9" transform="rotate(90 166 206)" fill="white"/>
<rect x="166" y="412" width="116" height="166" rx="9" transform="rotate(90 166 412)" fill="white"/>
<rect x="166" width="116" height="166" rx="9" transform="rotate(90 166 0)" fill="white"/>
<rect x="166" y="2060" width="116" height="166" rx="9" transform="rotate(90 166 2060)" fill="white"/>
<rect x="166" y="1236" width="116" height="166" rx="9" transform="rotate(90 166 1236)" fill="white"/>
<rect x="166" y="1648" width="116" height="166" rx="9" transform="rotate(90 166 1648)" fill="white"/>
<rect x="166" y="824" width="116" height="166" rx="9" transform="rotate(90 166 824)" fill="white"/>
<rect x="166" y="1854" width="116" height="166" rx="9" transform="rotate(90 166 1854)" fill="white"/>
<rect x="166" y="1030" width="116" height="166" rx="9" transform="rotate(90 166 1030)" fill="white"/>
<rect x="166" y="1442" width="116" height="166" rx="9" transform="rotate(90 166 1442)" fill="white"/>
<rect x="166" y="618" width="116" height="166" rx="9" transform="rotate(90 166 618)" fill="white"/>
</svg>
